<svg xmlns="http://www.w3.org/2000/svg" width="32" height="32" viewBox="0 0 32 32">
  <g id="Group_636" data-name="Group 636" transform="translate(-14654 -3766)">
    <circle id="Ellipse_321" data-name="Ellipse 321" cx="16" cy="16" r="16" transform="translate(14654 3766)" fill="#e4301b"/>
    <g id="Group_635" data-name="Group 635" transform="translate(14614.051 3773.328)">
      <g id="Group_634" data-name="Group 634" transform="translate(47.949 0)">
        <path id="Path_878" data-name="Path 878" d="M63.478,8.212a11.213,11.213,0,0,0,.129-1.529A5.173,5.173,0,0,0,62.219,3,4.157,4.157,0,0,0,61.987.041c-.657-.233-2.288.6-3.178,1.191a11.762,11.762,0,0,0-5.672.11C51.014-.179,49.891.053,49.891.053A4.48,4.48,0,0,0,49.7,3.259a4.307,4.307,0,0,0-1.219,3.189,9.858,9.858,0,0,0,.067,1.141,5.848,5.848,0,0,0,5.57,4.763,2.217,2.217,0,0,0-.877,1.432,2.859,2.859,0,0,1-2.13.172c-1.02-.322-1.411-2.343-2.939-2.055-.331.062-.265.28.021.466a3,3,0,0,1,1.242,1.48,2.5,2.5,0,0,0,2.531,1.718,7.741,7.741,0,0,0,1.165-.081s.013,1.571.013,2.184c0,.705-.952.9-.952,1.242,0,.135.315.147.568.147.5,0,1.541-.417,1.541-1.15,0-.582.009-2.54.009-2.883a1.107,1.107,0,0,1,.4-.988s.049,4-.1,4.534c-.171.63-.48.541-.48.821,0,.419,1.252.1,1.667-.814.321-.716.177-4.637.177-4.637l.335-.007s0,1.8-.008,2.616c-.012.85-.1,1.924.4,2.431.331.333,1.346.919,1.346.384,0-.31-.711-.566-.711-1.406V14.093c.432,0,.521,1.271.521,1.271l.156,2.362a1.2,1.2,0,0,0,.931,1.222c.365.128,1.146.163,1.183-.052s-.941-.533-.95-1.2c-.005-.406.018-.644.018-2.411s-.237-2.42-1.064-2.94C60.539,12.1,63.029,11.027,63.478,8.212Z" transform="translate(-47.949 0)" fill="#fff"/>
      </g>
    </g>
  </g>
</svg>
